<svg xmlns="http://www.w3.org/2000/svg" xmlns:xlink="http://www.w3.org/1999/xlink" version="1.1" x="0px" y="0px" viewBox="0 0 100 125" enable-background="new 0 0 100 100" xml:space="preserve"><path d="M62.9979858,48.0947227c0,1.3908691-1.1274414,2.5183105-2.5180664,2.5183105  c-1.3908691,0-2.5181885-1.1274414-2.5181885-2.5183105c0-1.390625,1.1273193-2.5180664,2.5181885-2.5180664  C61.8705444,45.5766563,62.9979858,46.7040977,62.9979858,48.0947227z M91.3519897,77.4309082v3.3432617  c0,0.776123-0.3479004,1.4663086-0.8881836,1.9438477v8.5786133c0,1.7924805-1.4584961,3.2509766-3.2509766,3.2509766H66.1244507  c-1.7924805,0-3.2509766-1.4584961-3.2509766-3.2509766v-8.5786133c-0.5402832-0.4775391-0.8881836-1.1677246-0.8881836-1.9438477  v-3.3432617c0-1.4365234,1.168457-2.6049805,2.6049805-2.6049805h3.8865967  c-1.9737549-2.5378418-4.411377-4.6881104-7.1851807-6.3117676c-3.7851563,1.7631836-7.9995117,2.7543945-12.4428711,2.7543945  c-4.4434814,0-8.6577148-0.9912109-12.4428711-2.7541504c-7.4954834,4.387207-12.5556641,12.6013184-12.5556641,21.998291h-2  c0-9.6801758,4.9838867-18.1967773,12.4816895-23.0668945c-8.980957-5.0825233-15.0598145-14.7187538-15.0598145-25.7534218  c0-0.8310547,0.0432129-1.6518555,0.1108398-2.4658203c-4.534668,0.2929688-7.6877441,0.137207-7.6877441,0.137207  l3.6293945-2.9311523c-4.0754395-0.7797852-6.6766357-5.2016602-6.6766357-5.2016602  c7.6693115,1.729248,8.2381592-2.9108887,9.1156006-6.1755371c0.6743164-2.5070801,2.6571045-6.7961426,4.279541-8.7744141  c16.3927002-19.9863281,37.833374-6.1862793,37.833374-6.1862793S85.8063354,6.831295,80.0114136,47.6874962  c0,0-0.8034668-0.1801758-2.0930176-0.5744629c-1.6225586,8.7194824-7.0795898,16.1032715-14.5528564,20.3325233  c2.1904297,1.4228516,4.1580811,3.1643066,5.8577881,5.1477051c-0.0290527-0.8339844,0.3261719-1.6086426,0.9816895-2.126709  c0.6616211-0.5239258,1.5058594-0.6918945,2.3188477-0.4624023L75.1578979,70.75  c0.3044434-0.3947754,0.7767334-0.654541,1.3109131-0.654541h0.3995361c0.5341797,0,1.0064697,0.2597656,1.3110352,0.654541  l2.6340332-0.7458496c0.8125-0.2299805,1.6572266-0.0605469,2.3183594,0.4619141  c0.6616211,0.5234375,1.0200195,1.3071289,0.9833984,2.1499023l-0.0332031,0.7695313  c-0.0227051,0.529541-0.2016602,1.0264893-0.5119629,1.4404297h5.177002  C90.1835327,74.8259277,91.3519897,75.9943848,91.3519897,77.4309082z M61.4616089,66.3144531  c7.5627441-3.8898964,13.1086426-11.1579628,14.6340332-19.8012733  c-5.9265137-2.0915527-16.6508789-7.2248535-18.1923828-17.3310547c-9.0546875,10.260498-21.6174316,8.505127-21.6174316,8.505127  c0.7207031-0.1337891,3.0056152-1.9267578,5.4597168-4.0012207c-6.2783203,3.4677734-14.2781982,4.8564453-20.446167,5.3955078  c-0.0809326,0.8598633-0.1268311,1.7299805-0.1268311,2.6108398c0,10.7189941,6.1293945,20.0270996,15.0634766,24.6220741  c0.7607422,0.3913574,1.5413818,0.748291,2.3408203,1.0690918c3.1784668,1.2756348,6.6430664,1.9846191,10.2719727,1.9846191  s7.0935059-0.7089844,10.2719727-1.9846191C59.9203491,67.0627441,60.7008667,66.7058105,61.4616089,66.3144531z   M74.7648315,83.3791504h-1.9333496H64.590271c-0.0056152,0-0.0109863-0.001709-0.0166016-0.001709v7.9191895  c0,0.8549805,0.6958008,1.5507813,1.5507813,1.5507813h8.6403809v-2.3347168V83.3791504z M74.7648315,76.526123h-2.7321777  h-2.3474121H64.590271c-0.4990234,0-0.9047852,0.4057617-0.9047852,0.9047852v2.8344727v0.5087891  c0,0.2442627,0.0993652,0.4645996,0.2570801,0.6274414c0.1645508,0.1699219,0.3929443,0.2773438,0.6477051,0.2773438h0.1652832  h7.5166016h2.1264648h0.3662109v-0.8378906v-0.8500977v-0.8500977V76.526123z M74.8071899,72.4174805l-2.7462158-0.7775879  c-0.0825195-0.0234375-0.1655273-0.034668-0.2480469-0.034668c-0.1982422,0-0.3916016,0.0664063-0.5532227,0.1943359  c-0.2285156,0.1806641-0.3525391,0.4511719-0.3398438,0.7421875l0.0336914,0.7700195  c0.0107422,0.2436523,0.1162109,0.4672852,0.2978516,0.6298828c0.1811523,0.1621094,0.4140625,0.2407227,0.6582031,0.2260742  l2.897583-0.1953125V72.4174805z M78.5299683,73.9724121l2.8967285,0.1953125  c0.2402344,0.0205078,0.4775391-0.0634766,0.6591797-0.2265625c0.1816406-0.1621094,0.2871094-0.3857422,0.2978516-0.6289063  l0.0332031-0.7700195c0.0126953-0.2915039-0.1113281-0.5620117-0.3398438-0.7426758  c-0.2280273-0.1806641-0.5209961-0.2392578-0.8007813-0.159668l-2.7463379,0.7775879V73.9724121z M88.7636108,83.3774414  c-0.0056152,0-0.0109863,0.001709-0.0166016,0.001709H78.5722046v9.4682617h8.640625  c0.8549805,0,1.5507813-0.6958008,1.5507813-1.5507813V83.3774414z M89.6517944,77.4309082  c0-0.4990234-0.4057617-0.9047852-0.9047852-0.9047852H78.5722046v2.6147461v0.8500977v0.8500977v0.8378906h10.0095215h0.1652832  c0.2546387,0,0.4831543-0.1074219,0.6477051-0.2773438c0.1577148-0.1628418,0.2570801-0.3830566,0.2570801-0.6274414v-0.5087891  V77.4309082z M37.2174683,45.5766563c-1.390625,0-2.5180664,1.1274414-2.5180664,2.5180664  c0,1.3908691,1.1274414,2.5183105,2.5180664,2.5183105c1.3907471,0,2.5181885-1.1274414,2.5181885-2.5183105  C39.7356567,46.7040977,38.6082153,45.5766563,37.2174683,45.5766563z M51.8278198,60.1303673  c-0.4692383,0-0.8500977,0.3808594-0.8500977,0.8500977c0,0.3989258-0.8491211,1.0024414-2.1289063,1.0024414  c-1.2802734,0-2.1293945-0.6035156-2.1293945-1.0024414c0-0.4692383-0.3808594-0.8500977-0.8500977-0.8500977  s-0.8500977,0.3808594-0.8500977,0.8500977c0,0.9475098,0.6574707,1.7666016,1.6749268,2.2473145  c0.6101074,0.2885742,1.3497314,0.4553223,2.1546631,0.4553223s1.5443115-0.166748,2.1542969-0.4553223  c1.017334-0.480957,1.6748047-1.2998047,1.6748047-2.2473145C52.6779175,60.5112267,52.2970581,60.1303673,51.8278198,60.1303673z"/></svg>
