<svg xmlns="http://www.w3.org/2000/svg" xmlns:xlink="http://www.w3.org/1999/xlink" version="1.1" x="0px" y="0px" viewBox="0 0 100 125" enable-background="new 0 0 100 100" xml:space="preserve"><path fill="#000000" d="M42.4729156,55.3663406c0,1.1791916-0.9558182,2.1352158-2.1352158,2.1352158  c-1.1791954,0-2.1352196-0.9560242-2.1352196-2.1352158c0-1.1794014,0.9560242-2.1354256,2.1352196-2.1354256  C41.5170975,53.2309151,42.4729156,54.1869392,42.4729156,55.3663406z M60.0633011,53.2309151  c-1.1793976,0-2.1354218,0.9560242-2.1354218,2.1354256c0,1.1791916,0.9560242,2.1352158,2.1354218,2.1352158  c1.1791916,0,2.1352158-0.9560242,2.1352158-2.1352158C62.1985168,54.1869392,61.2424927,53.2309151,60.0633011,53.2309151z   M52.7268829,65.5716553c-0.3978958,0-0.7208481,0.3229523-0.7208481,0.7208481  c0,0.3386917-0.7200203,0.8504486-1.8056374,0.8504486c-1.0852051,0-1.8052254-0.5117569-1.8052254-0.8504486  c0-0.3978958-0.3229523-0.7208481-0.7208481-0.7208481s-0.7208481,0.3229523-0.7208481,0.7208481  c0,0.8034515,0.5575066,1.4982147,1.420372,1.906044c0.5171394,0.2447052,1.144207,0.3860931,1.8265495,0.3860931  s1.3094101-0.1413879,1.8267555-0.3860931c0.8628616-0.4078293,1.420578-1.1025925,1.420578-1.906044  C53.447731,65.8946075,53.1247787,65.5716553,52.7268829,65.5716553z M58.6630096,22.6313152l-9.155098,2.8730412  l-13.3174706-4.1756191l-4.5027103-1.4116764l-2.9125824,6.9782715l-0.5709629,1.3682022  c0.8674183,2.2171974,10.4326248,3.9363022,22.0485878,3.9363022c11.5664825,0,21.0967064-1.7046127,22.0340996-3.9081478  c0.0039291-0.0095215,0.0107651-0.018631,0.0144882-0.0281544l-3.6578598-8.7642441L58.6630096,22.6313152z M31.6092701,19.004097  l0.4061756,0.1273174l5.3436317,1.6754227l12.1488342,3.8089828l8.0763092-2.5345592l10.7313614-3.3678226l0.4063797-0.1275253  l0.4059677-0.1273174l5.3202438-1.6696262l-0.0062103-0.014698l-22.9874306-1.7634068  c-0.2287598,0.666194-0.853756,1.14814-1.5975838,1.14814c-0.9365654,0-1.695919-0.7593546-1.695919-1.6959181  c0-0.9365644,0.7593536-1.6959181,1.695919-1.6959181c0.8347092,0,1.5249176,0.6042948,1.6658974,1.398428l23.4962883,1.8021202  l0.24263,0.5657883l2.8573074-0.8966084L49.5079117,6.6666665l-28.61199,8.9785099l10.3071728,3.2316008L31.6092701,19.004097z   M74.616272,17.1808605l0.1676865,0.3914776l3.7609558,8.7750072c-0.7628708,0.3633232-1.2940903,1.1350975-1.2940903,2.0364685  c0,0.9077873,0.5382538,1.6851521,1.3102417,2.0449562l-1.3810425,26.5028553h0.783165l0.2767868-2.2610855l0.2769928,2.2610855  h0.7181549l0.2767868-2.2610855l0.2769928,2.2610855h0.7181625l0.2767868-2.2610855l0.2769928,2.2610855h0.7829514  l-1.3808289-26.5028553c0.7717743-0.3598042,1.3102341-1.1371689,1.3102341-2.0449562  c0-1.2489586-1.0123291-2.2612934-2.2612915-2.2612934c-0.0463715,0-0.0894318,0.010973-0.1351852,0.0136642l-3.7791748-8.8191032  l-0.1678925-0.3914776l-0.1678925-0.3920994l-0.813591,0.2554646L74.616272,17.1808605z M79.295784,79.2051468l-0.308876,1.8350296  c-0.0327148,0.1952209-0.2318649,0.3150864-0.4198456,0.2527771L76.345726,80.555954l1.6387787,1.6817398  c0.1382904,0.1417084,0.1173859,0.3732605-0.0438843,0.4880524l-1.5158081,1.0793076  c-0.1614761,0.1147919-0.3869247,0.0586853-0.4757385-0.1181107l-1.3156204-2.6225433L74.542984,81.0084  c-0.7995148,1.3195572-1.5681839,2.6571198-2.3223648,4.0027542c0.5633087,2.0120392,0.8734283,4.1309052,0.8734283,6.3238831  h-1.6959229c0-1.4075394-0.140564-2.7815399-0.3960266-4.1141357c-1.0301361,1.9228134-2.0153503,3.8692245-2.9455032,5.8418274  l-0.0455399-0.0213242c-0.8773575,1.0498047-4.3805695-1.0359344-5.0904465-1.476059  c-0.7069778-0.4382629-4.1077156-2.6332092-3.591404-3.8884811l-0.1498833-0.1186218  c2.564373-3.2399826,4.9589844-6.6135025,7.2061996-10.0830688c-1.5886765-1.9074936-3.4899635-3.538826-5.634079-4.7937851  c-3.2096596,1.4948959-6.7832603,2.3354034-10.5510445,2.3354034c-3.7679939,0-7.3413887-0.8405075-10.5510445-2.3356094  c-6.3557587,3.7201691-10.6466885,10.6856079-10.6466885,18.6538544h-1.6959171  c0-8.2086029,4.2261314-15.4303284,10.5839615-19.5599899c-7.6150703-4.3095627-12.7696915-12.480896-12.7696915-21.838047  c0-0.7047005,0.0366421-1.4004974,0.0937805-2.0907059c-3.8452129,0.2484245-6.5188904,0.1165504-6.5188904,0.1165504  l3.0775776-2.4857025c-3.4558067-0.6612244-5.6614094-4.4105873-5.6614094-4.4105873  c6.5031567,1.4661255,6.9855156-2.4685211,7.7295513-5.2366028c0.5616474-2.0882225,2.1925602-5.6243515,3.5541401-7.3391075  c1.2576542,3.5980263,15.4330177,4.5569496,22.8570061,4.5569496c7.072258,0,20.2766914-0.868866,22.6002998-4.0615482  c3.4489746,4.4832516,5.7160645,12.330183,3.7721329,26.0347805c0,0-0.6813049-0.1529884-1.7747955-0.4871216  c-1.3758621,7.3939705-6.0031967,13.6549149-12.3403244,17.2413483c1.7538834,1.1392365,3.3377991,2.5207977,4.7233963,4.0863953  l1.1146011-1.7975693l0.1360168,0.084465c2.3819809-3.9259491,4.5691605-7.9700012,6.5265503-12.1219177l0.1343536,0.0632439  c1.0794067-0.8566551,4.5983582,1.2769089,5.0184021,1.5374451c0.4204636,0.2607422,3.8959351,2.4642754,3.6085892,3.811985  l0.1159286,0.0919189c-2.8486099,3.5993729-5.4984818,7.3562927-7.9562378,11.2353516l0.037674,0.0232849l3.0123672,0.0391312  C79.1796417,78.8314667,79.3284912,79.0099258,79.295784,79.2051468z M60.8955269,70.815918  c6.413105-3.2984695,11.1157951-9.4616966,12.4092674-16.7906609c-5.025444-1.7737579-14.1192627-6.1265869-15.4263954-14.6962318  c-7.6777954,8.7004814-18.3306923,7.2122078-18.3306923,7.2122078c0.6111259-0.1136551,2.5486374-1.633812,4.6296158-3.3930779  c-5.3235512,2.9407349-12.1072235,4.1182709-17.3374081,4.5751686c-0.0687313,0.729126-0.1074429,1.4669495-0.1074429,2.2136765  c0,9.0892677,5.1972675,16.9823647,12.7727928,20.8789177c0.6450806,0.3318558,1.3069267,0.6345215,1.9849205,0.9065475  c2.6952095,1.0814819,5.632843,1.6828766,8.7102127,1.6828766c3.0771637,0,6.0149994-0.6013947,8.7100029-1.6828766  C59.5883942,71.4504395,60.2502403,71.1477737,60.8955269,70.815918z M75.756752,62.7594795  c0.1349792,0.4135246,1.2038269,1.5771904,3.1995163,2.8146629c1.9960938,1.2376785,3.5135651,1.677597,3.9439621,1.6147614  c-0.1356049-0.4133148-1.2042465-1.5769806-3.2001343-2.8145523C77.7044067,63.136879,76.187355,62.6971664,75.756752,62.7594795z   M67.2732315,92.4699249c-0.1890106-0.4176636-1.1969986-1.5018387-3.2088318-2.7492447  c-2.0120392-1.247612-3.4311676-1.6685867-3.8895149-1.6521301c0.1888046,0.4179764,1.1967926,1.5021439,3.2090378,2.7497559  C65.3959579,92.0659256,66.814888,92.4866943,67.2732315,92.4699249z M73.795639,80.5449829l-5.5268478-3.4271317  l-0.4283218-0.2655029c-0.2856903,0.4503708-0.5817337,0.8938141-0.8728027,1.3405685  c-2.0176315,3.0980682-4.1559525,6.1164398-6.4255257,9.0336761c1.3911819,0.1870422,3.4584999,1.420166,3.9855766,1.7470551  c0.5076141,0.3146744,2.4059982,1.5358887,3.2475357,2.6644669c0.9307709-1.9296494,1.9099808-3.8358994,2.9337006-5.718132  c0.3782272-0.695282,0.7668076-1.3847656,1.1574554-2.0732193C72.4955444,82.7380676,73.1350327,81.6352615,73.795639,80.5449829z   M75.1845474,78.3032532c2.2416229-3.5384064,4.6503143-6.9696808,7.2161407-10.2784958  c-1.4694366-0.2225494-3.587265-1.504837-3.9077377-1.7035828c-0.3200531-0.1985321-2.410759-1.5257416-3.2630692-2.7429237  c-1.8230286,3.7695427-3.8255463,7.4525566-5.998642,11.0335045L75.1845474,78.3032532z"/></svg>
