<svg xmlns="http://www.w3.org/2000/svg" xmlns:xlink="http://www.w3.org/1999/xlink" version="1.1" x="0px" y="0px" viewBox="0 0 100 125" enable-background="new 0 0 100 100" xml:space="preserve"><path fill="#000000" d="M90.664711,66.4847641l-4.6542511-17.1960945c-1.1170197-4.1287346-3.9828186-7.3209801-7.5811081-9.0105743  v-4.3200264c0-0.0504341-0.006485-0.0992432-0.0075226-0.1494179c1.1402283-0.8637581,1.8894424-2.2186775,1.8894424-3.7560043  v-7.0822411c0-2.6058617-2.1204681-4.7263317-4.7263336-4.7263317H63.8719139  c0.1570015-0.1095505,0.3198357-0.21171,0.4619255-0.3391514c0.8463211-0.759201,1.3420868-1.7673187,1.3965378-2.8392239  l0.0751877-1.5002499c0.0637894-1.2668896-0.4957581-2.4871063-1.536026-3.3463926  c-1.2430382-1.0273056-2.9636841-1.4032764-4.5977287-1.0013771l-5.342144,1.3053942  c-0.0360413-0.8529987-0.733532-1.5349302-1.5954132-1.5349302H47.265316c-0.8617477,0-1.5593681,0.6819315-1.5954094,1.5349302  l-5.3421478-1.3053942c-1.6355972-0.4024172-3.3562431-0.0259285-4.5977249,1.0013771  c-1.0402679,0.8592863-1.5998154,2.0789852-1.5360298,3.3458748l0.0751915,1.5012865  c0.054451,1.0713863,0.5502129,2.079504,1.396534,2.8387051c0.1420937,0.1274414,0.304924,0.2296009,0.4619255,0.3391514H24.4146309  c-2.6058617,0-4.7263336,2.12047-4.7263336,4.7263317v7.0822411c0,1.5373268,0.749218,2.8922462,1.8894444,3.7560043  c-0.0010376,0.0501747-0.0075188,0.0989838-0.0075188,0.1494179v4.2199402  c-0.4388485,0.2010117-0.8709545,0.4228363-1.2933369,0.6707802c-3.2343807,1.899559-5.5316877,4.9316902-6.4697981,8.5378952  L9.3234501,66.6289291c-0.6150351,2.3667984,0.8100214,4.7937469,3.1773367,5.4093018  c0.9432955,0.2452927,1.9192619,0.1742477,2.8075886-0.196022l-1.8928146,7.2793045  c-0.6155539,2.3673096,0.8095026,4.7937469,3.1762991,5.4098206c0.9764843,0.2535858,1.9892712,0.1680145,2.9019699-0.2359543  c-0.1317177,2.0774231,1.2233295,4.0298767,3.3111305,4.5728302c0.3697472,0.0959396,0.7441616,0.1436462,1.1170197,0.1436462  c0.7799435,0,1.5505524-0.2084656,2.2433758-0.615036c0.7763138-0.4558258,1.3820133-1.1180573,1.7590218-1.9088898  c0.5999966,0.7975769,1.4432049,1.3654175,2.4186535,1.6190033c2.3704281,0.615036,4.7942677-0.8089828,5.4098225-3.1763  l0.30233-1.1626511c0.5953293,0.7555695,1.4141655,1.2938538,2.3574638,1.5391464  c1.1429482,0.2976608,2.3362007,0.1291199,3.3598747-0.4719086c1.0241966-0.6015549,1.7517624-1.5619659,2.0489082-2.7049103  l4.1523933-15.9686203h3.97258l4.3759041,16.1667175c0.6394081,2.3610916,3.0819168,3.7612534,5.4409332,3.1223679  c0.9401855-0.2541046,1.7538376-0.8001709,2.3413887-1.5619659l0.313736,1.1595459  c0.6394119,2.3610916,3.0819244,3.7643661,5.4409409,3.1223679c1.0013733-0.2706985,1.8300629-0.8660278,2.4036102-1.6418228  c0.3847885,0.7866821,0.9972305,1.4421692,1.7766571,1.8897018c0.6845245,0.3925629,1.4411316,0.5932541,2.2060394,0.5932541  c0.3868561,0,0.7763138-0.0513382,1.1590195-0.1550522c1.1398392-0.3085556,2.0935059-1.0454559,2.6846848-2.0753555  c0.4480591-0.7804642,0.6461563-1.6558228,0.5813293-2.5301514c0.9163284,0.3961945,1.9296341,0.4713898,2.9040451,0.2074356  c2.3605728-0.6394119,3.7617798-3.080368,3.1223679-5.4409409l-1.9648972-7.2601089  c0.8914413,0.3598938,1.8689575,0.4216003,2.8096619,0.1675034c1.1398392-0.3085556,2.0935059-1.0454559,2.6846848-2.0753555  C90.8176956,68.8194122,90.9732666,67.6246033,90.664711,66.4847641z M36.0728149,16.9754677l-0.0751915-1.5012884  c-0.0357857-0.702157,0.2779579-1.3638639,0.8826218-1.8637743c0.5885849-0.4864283,1.3503799-0.7451992,2.1417313-0.7451992  c0.2909241,0,0.5854759,0.035264,0.8774376,0.1063089l5.763752,1.4086561v4.6206722l-6.3357468,0.3689041  c-0.9344788,0.0513401-1.8228073-0.2411385-2.4559898-0.8089828C36.3860359,18.1256752,36.102375,17.5619793,36.0728149,16.9754677z   M21.7066097,24.9704056c0-1.4935074,1.2145119-2.7080212,2.7080212-2.7080212h21.3019485v7.1216507v2.0183125v3.3583183H24.4146309  c-0.2148209,0-0.4210873-0.0314369-0.6216469-0.0788879c-0.7299004-0.1728172-1.3394909-0.6414833-1.7083302-1.2722702  c-0.2341385-0.4005356-0.3780441-0.8601913-0.3780441-1.3568611V24.9704056z M45.7165794,36.7789803v8.0766144v2.9632263v16.3245583  H28.1437359c-2.5119991,0-4.5552025-2.0432014-4.5552025-4.5552025V41.550106v-2.102581v-2.7521019  c0.2694016,0.047905,0.5432129,0.0835571,0.8260975,0.0835571H45.7165794z M41.8684578,81.6226196  c-0.1612778,0.621254-0.5585098,1.1445007-1.1175385,1.4727631c-0.5595474,0.3277435-1.2124367,0.419014-1.8305855,0.2587738  c-1.290741-0.3355255-2.0675735-1.6584167-1.7320557-2.9486465l2.5628204-9.856636  c0.0897141-0.3458939-0.05756-0.7011185-0.3095894-0.9541855c-0.2525482-0.253067-0.6674118-0.3396683-1.0133057-0.253067  l-0.155056,0.0388947c-0.3671532,0.0840073-0.6565208,0.3650742-0.7514229,0.7291183L33.799881,84.4224319  c-0.3350029,1.2902222-1.6578979,2.0675735-2.9491596,1.7315369c-0.6212597-0.1612778-1.1439877-0.5585098-1.4722481-1.1175385  c-0.3287792-0.5595474-0.4205685-1.2093277-0.2587719-1.8305893l3.34795-12.8747711  c0.1400146-0.5393219-0.1830597-1.0900574-0.7218628-1.2305908l-0.2426949-0.0632629  c-0.2598095-0.0684586-0.5346565-0.0300827-0.7654228,0.106308c-0.2307682,0.1353455-0.3982697,0.3572998-0.4656849,0.6160736  l-4.0106945,15.4241028c-0.1612778,0.6212616-0.5585098,1.1445084-1.1175385,1.4727707  c-0.5595474,0.3277435-1.2103634,0.4184952-1.8305855,0.2587662c-1.290226-0.3355179-2.0670567-1.6584167-1.7320557-2.9491577  v0.0005188l4.0106945-15.4235916c0.0674152-0.2592926,0.0290394-0.5346527-0.1068268-0.765419  c-0.1353493-0.2307739-0.3573017-0.3982697-0.6165924-0.4651718l-0.2421761-0.0627441  c-0.5424347-0.1420898-1.089016,0.1840973-1.2295513,0.7223816l-3.34795,12.8742523  c-0.1617966,0.6217728-0.5585098,1.1450195-1.1180573,1.4732819c-0.5600643,0.3292999-1.2108822,0.419014-1.8305855,0.2587738  c-1.290225-0.3355255-2.0670576-1.6584167-1.7315359-2.9486465l3.7213259-14.3127899  c0.0949001-0.3656006-0.02178-0.7529755-0.3028507-1.0050049l-0.1903191-0.1789093  c-0.2598076-0.2442551-0.6300735-0.3355255-0.9707794-0.2344017c-0.3422623,0.0985298-0.6072578,0.3707848-0.6969719,0.7151222  l-0.9723358,3.7399979c-0.1612787,0.621254-0.5585098,1.1445007-1.1175385,1.4727631  c-0.5595474,0.3277435-1.2124395,0.419014-1.8305855,0.2587738c-1.290226-0.3355255-2.0670586-1.6584167-1.7320557-2.9486465  l4.4836378-17.2417297c0.8022432-3.0850296,2.7692137-5.6794815,5.5389471-7.3062668  c0.0886765-0.0520515,0.181633-0.0924339,0.2712173-0.1420898v17.1416435c0,3.6243515,2.9491615,6.573513,6.573513,6.573513  h17.7450123L41.8684578,81.6226196z M54.3364067,14.3801708l5.763752-1.4086561  c1.086422-0.2670679,2.2138138-0.0264473,3.0191689,0.6388903c0.6046638,0.4999104,0.9183998,1.1621361,0.882618,1.8642931  l-0.0751915,1.5002508c-0.0295563,0.5870304-0.313221,1.1507263-0.7986107,1.5858154  c-0.6331863,0.5678444-1.5235863,0.860323-2.4559937,0.8089828l-6.335743-0.3689041V14.3801708z M54.2829933,31.4023476v-2.0183125  v-7.1216507H75.584938c1.4935074,0,2.7080231,1.2145138,2.7080231,2.7080212v7.0822411  c0,0.4966698-0.1439056,0.9563255-0.3780441,1.3568611c-0.3688431,0.6307869-0.9785614,1.099453-1.7083282,1.2722702  c-0.2005615,0.047451-0.4068298,0.0788879-0.6216507,0.0788879H54.2829933V31.4023476z M54.2829933,47.7735748v-2.8926353  v-8.1019592H75.584938c0.2828903,0,0.556694-0.0356522,0.8260956-0.0835571v2.8266449v2.1039429v17.9621658  c0,2.512001-2.0431976,4.5552025-4.5551987,4.5552025H54.2829933V47.7735748z M88.4763031,68.8453369  c-0.3225555,0.5621414-0.8416519,0.9645615-1.4613571,1.1320648c-0.621254,0.1664581-1.271553,0.0819321-1.8336945-0.2406235  s-0.9645538-0.8416519-1.1320572-1.4613571l-1.0096741-3.7296219c-0.0928268-0.3438187-0.3598938-0.6129646-0.7026749-0.7083817  c-0.3427811-0.0948982-0.7109756-0.0036316-0.9681854,0.2421799c-0.0015564,0.0020676-0.0762329,0.0736313-0.0777893,0.0751877  l-0.1135712,0.1083832c-0.2774353,0.2551422-0.3899689,0.6430435-0.2914429,1.0065689l3.8634186,14.2749329  c0.3484879,1.287117-0.4153824,2.6177902-1.7019806,2.9662781c-0.61866,0.1674957-1.2710342,0.0824509-1.8336945-0.2406235  c-0.5621414-0.3230743-0.9645538-0.8421707-1.1320572-1.4618759l-3.4760361-12.8405457  c-0.1452026-0.5377655-0.6974945-0.8556595-1.2373352-0.7104568l-0.2416534,0.0653458  c-0.258255,0.0700073-0.4781342,0.2395782-0.6114044,0.4713898c-0.1332779,0.2323227-0.1690598,0.5076828-0.0990524,0.7659378  l4.1636734,15.3831406c0,0,0,0,0,0.0005188c0.1680222,0.6191864,0.0824585,1.2705231-0.2406158,1.8331833  c-0.3225632,0.5621338-0.8416595,0.9645538-1.4618759,1.1320572c-0.6186676,0.1664658-1.2694855,0.0829697-1.8331833-0.2406235  c-0.5621414-0.3225555-0.9645538-0.8416519-1.1320572-1.4613571l-4.1636734-15.3831406  c-0.1218643-0.4496078-0.5289536-0.7457199-0.9733734-0.7457199c-0.0871201,0-0.1757965,0.0114136-0.2639618,0.0352631  l-0.2416534,0.0653458c-0.258255,0.0700073-0.4781342,0.2395859-0.6114044,0.4713898  c-0.1332779,0.2323227-0.1690598,0.5076904-0.0990524,0.7659378l3.4755249,12.8410645  c0.1674957,0.6197052,0.0819321,1.2710419-0.2406235,1.8337021c-0.3230743,0.5621338-0.8416519,0.9645538-1.4613571,1.1320572  c-1.2850418,0.3500366-2.6172714-0.4148636-2.9662781-1.7019806l-3.8634148-14.2754517  c-0.0990486-0.3661194-0.3946381-0.6456375-0.7654228-0.723938l-0.1477966-0.0347443  c-0.003109-0.0005188-0.1031952-0.0248947-0.106308-0.0259323c-0.3448524-0.0834885-0.7099342,0.0248947-0.9567795,0.2805557  c-0.2473602,0.2551346-0.3417435,0.6222916-0.2489166,0.9650726l2.6608315,9.8307114  c0.1674995,0.6197052,0.0819359,1.2710419-0.2406197,1.8336945c-0.3230782,0.5621414-0.8416557,0.9645615-1.4613571,1.1320648  c-1.2860794,0.3474426-2.6177902-0.4148636-2.9662743-1.7019806l-4.2331657-15.6393204H71.855835  c3.6243515,0,6.5735168-2.9491615,6.5735168-6.573513V42.5425339c2.6746979,1.5264397,4.766777,4.072731,5.6333237,7.2730141  l4.6542511,17.1966133C88.8849487,67.6313477,88.7993851,68.2826843,88.4763031,68.8453369z"/></svg>
