<svg xmlns="http://www.w3.org/2000/svg" xmlns:xlink="http://www.w3.org/1999/xlink" version="1.1" x="0px" y="0px" viewBox="0 0 104.833 131.04125" enable-background="new 0 0 104.833 104.833" xml:space="preserve"><path d="M35.944,44.834c3.4,0,6.167-2.767,6.167-6.167S39.345,32.5,35.944,32.5c-3.4,0-6.167,2.766-6.167,6.167  S32.545,44.834,35.944,44.834z"/><path d="M66.78,44.834c3.4,0,6.166-2.767,6.166-6.167S70.18,32.5,66.78,32.5s-6.168,2.766-6.168,6.167S63.379,44.834,66.78,44.834z"/><path d="M78.338,46.915c-1.84-0.585-3.811,0.431-4.396,2.272c-3.08,9.665-11.969,16.159-22.119,16.159  c-10.15,0-19.04-6.494-22.12-16.159c-0.587-1.842-2.557-2.857-4.396-2.272c-1.842,0.587-2.859,2.556-2.272,4.397  c4.01,12.581,15.578,21.034,28.789,21.034s24.779-8.453,28.789-21.034C81.198,49.471,80.18,47.501,78.338,46.915z"/><path d="M51.921,98.715c-1.014,0-2.029-0.34-2.862-1.027c-4.26-3.514-7.437-5.836-10.509-8.08  c-3.302-2.412-6.421-4.691-10.256-8.023c-0.946-0.822-1.909-1.65-2.882-2.484c-6.199-5.32-12.609-10.82-17.437-17.555  c-5.902-8.242-10.256-22.191-6.681-34.78C4.75,14.595,14.519,6.836,27.424,6.011c0.08-0.005,0.16-0.008,0.24-0.009L28.05,6  c12.612,0,19.628,6.408,23.693,12.397C55.616,12.619,61.956,6.866,73.87,6.013c0.092-0.006,0.184-0.01,0.277-0.011L74.481,6  c10.285,0,16.965,4.571,20.756,8.405c6.766,6.837,9.334,17.029,7.424,29.473c-1.752,11.514-7.436,18.48-12.623,24.109  c-7.412,7.717-15.615,14.041-22.854,19.621c-4.541,3.502-8.83,6.807-12.217,9.92C54.11,98.319,53.016,98.715,51.921,98.715z   M27.873,15.001c-12.314,0.842-16.512,9.266-17.92,14.223c-2.742,9.654,0.846,20.804,5.339,27.079  c4.195,5.852,10.187,10.994,15.982,15.967c0.987,0.848,1.966,1.688,2.925,2.521c3.547,3.082,6.38,5.152,9.661,7.549  c2.316,1.693,4.871,3.559,7.942,5.99c3.009-2.547,6.375-5.143,9.886-7.85c6.99-5.389,14.912-11.496,21.797-18.664  c4.604-4.993,8.906-10.285,10.279-19.299c1.02-6.641,0.99-15.805-4.924-21.783C86.252,18.119,81.661,15,74.481,15l-0.113,0  c-11.123,0.845-14.85,6.907-18.561,14.737c-0.744,1.572-2.328,2.573-4.066,2.573c-0.008,0-0.018,0-0.025,0  c-1.749-0.01-3.333-1.032-4.063-2.621C43.602,20.873,38.717,15,28.05,15L27.873,15.001z"/></svg>
