<svg xmlns:dc="http://purl.org/dc/elements/1.1/" xmlns:cc="http://creativecommons.org/ns#" xmlns:rdf="http://www.w3.org/1999/02/22-rdf-syntax-ns#" xmlns:svg="http://www.w3.org/2000/svg" xmlns="http://www.w3.org/2000/svg" xmlns:sodipodi="http://sodipodi.sourceforge.net/DTD/sodipodi-0.dtd" xmlns:inkscape="http://www.inkscape.org/namespaces/inkscape" version="1.1" x="0px" y="0px" viewBox="0 0 100 125"><g transform="translate(0,-952.36218)"><path style="text-indent:0;text-transform:none;direction:ltr;block-progression:tb;baseline-shift:baseline;color:#000000;enable-background:accumulate;" d="m 18.001719,957.3554 c -2.7354,0 -5,2.26459 -5,5 l 0,3 -6,0 c -2.1814,0 -4,1.8186 -4,4 l 0,66 c 0,2.1814 1.8186,4 4,4 l 63.6562,0 6.875,7.375 c 0.7855,0.9052 2.2029,0.7958 2.9376,0 l 13.9062,-14.9063 c 3.465,-3.7949 3.5257,-9.8109 0,-13.5937 -1.9833,-2.1278 -4.7197,-3.096 -7.375,-2.8438 l 0,-46.0312 c 0,-2.1814 -1.8186,-4 -4,-4 l -6,0 0,-3 c 0,-2.73541 -2.2646,-5 -5,-5 -2.7354,0 -5,2.26459 -5,5 l 0,3 -8,0 0,-3 c 0,-2.73541 -2.2646,-5 -5,-5 -2.7354,0 -5,2.26459 -5,5 l 0,3 -8,0 0,-3 c 0,-2.73541 -2.2646,-5 -5,-5 -2.7354,0 -5,2.26459 -5,5 l 0,3 -8,0 0,-3 c 0,-2.73541 -2.2646,-5 -5,-5 z m 0,4 c 0.5886,0 1,0.41141 1,1 l 0,10 c 0,0.58859 -0.4114,1 -1,1 -0.5886,0 -1,-0.41141 -1,-1 l 0,-10 c 0,-0.58859 0.4114,-1 1,-1 z m 18,0 c 0.5886,0 1,0.41141 1,1 l 0,10 c 0,0.58859 -0.4114,1 -1,1 -0.5886,0 -1,-0.41141 -1,-1 l 0,-10 c 0,-0.58859 0.4114,-1 1,-1 z m 18,0 c 0.5886,0 1,0.41141 1,1 l 0,10 c 0,0.58859 -0.4114,1 -1,1 -0.5886,0 -1,-0.41141 -1,-1 l 0,-10 c 0,-0.58859 0.4114,-1 1,-1 z m 18,0 c 0.5886,0 1,0.41141 1,1 l 0,10 c 0,0.58859 -0.4114,1 -1,1 -0.5886,0 -1,-0.41141 -1,-1 l 0,-10 c 0,-0.58859 0.4114,-1 1,-1 z m -65,8 6,0 0,3 c 0,2.73541 2.2646,5 5,5 2.7354,0 5,-2.26459 5,-5 l 0,-3 8,0 0,3 c 0,2.73541 2.2646,5 5,5 2.7354,0 5,-2.26459 5,-5 l 0,-3 8,0 0,3 c 0,2.73541 2.2646,5 5,5 2.7354,0 5,-2.26459 5,-5 l 0,-3 8,0 0,3 c 0,2.73541 2.2646,5 5,5 2.7354,0 5,-2.26459 5,-5 l 0,-3 6,0 0,12 -76,0 0,-12 z m 0,16 76,0 0,31.4687 c -0.5883,0.3935 -1.1471,0.8513 -1.6562,1.4063 l -2.3438,2.5312 -2.3438,-2.5312 c -4.1183,-4.1047 -9.5755,-3.5716 -13.0312,0 -3.5259,3.7828 -3.487,9.8265 0,13.5937 l 3.2812,3.5313 -59.9062,0 0,-50 z m 80.8438,33.9375 c 1.2744,0 2.5601,0.5472 3.5937,1.6562 2.0672,2.2178 2.0672,5.9385 0,8.1563 l -12.4375,13.3437 -12.4375,-13.3437 c -2.0672,-2.2178 -2.0672,-5.9384 0,-8.1563 1.0339,-1.1092 2.3211,-1.5937 3.5937,-1.5937 1.2727,0 2.525,0.4805 3.5626,1.5937 l 3.8124,4.0938 c 0.7464,0.8075 2.1911,0.8075 2.9376,0 l 3.8124,-4.0938 c 1.0337,-1.109 2.2881,-1.6562 3.5626,-1.6562 z" fill="#000000" fill-opacity="1" stroke="none" marker="none" visibility="visible" display="inline" overflow="visible"/></g></svg>
